<mxfile host="app.diagrams.net" agent="Mozilla/5.0 (Windows NT 10.0; Win64; x64; rv:132.0) Gecko/20100101 Firefox/132.0" version="24.8.4">
  <diagram name="Page-1" id="hzUlw1iZmztPAW4H-VFq">
    <mxGraphModel dx="1434" dy="734" grid="1" gridSize="10" guides="1" tooltips="1" connect="1" arrows="1" fold="1" page="1" pageScale="1" pageWidth="827" pageHeight="1169" math="0" shadow="0">
      <root>
        <mxCell id="0" />
        <mxCell id="1" parent="0" />
        <mxCell id="Y0ZvNxRReHda0YX5P9mq-20" style="edgeStyle=orthogonalEdgeStyle;rounded=0;orthogonalLoop=1;jettySize=auto;html=1;exitX=0.5;exitY=1;exitDx=0;exitDy=0;entryX=0.5;entryY=0;entryDx=0;entryDy=0;" edge="1" parent="1" source="Y0ZvNxRReHda0YX5P9mq-15" target="Y0ZvNxRReHda0YX5P9mq-16">
          <mxGeometry relative="1" as="geometry" />
        </mxCell>
        <mxCell id="Y0ZvNxRReHda0YX5P9mq-15" value="Start" style="ellipse;whiteSpace=wrap;html=1;" vertex="1" parent="1">
          <mxGeometry x="330" y="80" width="120" height="80" as="geometry" />
        </mxCell>
        <mxCell id="Y0ZvNxRReHda0YX5P9mq-23" style="edgeStyle=orthogonalEdgeStyle;rounded=0;orthogonalLoop=1;jettySize=auto;html=1;exitX=0;exitY=0.5;exitDx=0;exitDy=0;entryX=1;entryY=0.5;entryDx=0;entryDy=0;" edge="1" parent="1" source="Y0ZvNxRReHda0YX5P9mq-16" target="Y0ZvNxRReHda0YX5P9mq-19">
          <mxGeometry relative="1" as="geometry" />
        </mxCell>
        <mxCell id="Y0ZvNxRReHda0YX5P9mq-29" value="No" style="edgeLabel;html=1;align=center;verticalAlign=middle;resizable=0;points=[];" vertex="1" connectable="0" parent="Y0ZvNxRReHda0YX5P9mq-23">
          <mxGeometry x="-0.375" relative="1" as="geometry">
            <mxPoint x="-15" as="offset" />
          </mxGeometry>
        </mxCell>
        <mxCell id="Y0ZvNxRReHda0YX5P9mq-27" style="edgeStyle=orthogonalEdgeStyle;rounded=0;orthogonalLoop=1;jettySize=auto;html=1;exitX=0.5;exitY=1;exitDx=0;exitDy=0;entryX=0.5;entryY=0;entryDx=0;entryDy=0;" edge="1" parent="1" source="Y0ZvNxRReHda0YX5P9mq-16" target="Y0ZvNxRReHda0YX5P9mq-21">
          <mxGeometry relative="1" as="geometry" />
        </mxCell>
        <mxCell id="Y0ZvNxRReHda0YX5P9mq-28" value="&lt;div&gt;Yes&lt;/div&gt;" style="edgeLabel;html=1;align=center;verticalAlign=middle;resizable=0;points=[];" vertex="1" connectable="0" parent="Y0ZvNxRReHda0YX5P9mq-27">
          <mxGeometry x="-0.2" y="1" relative="1" as="geometry">
            <mxPoint x="-11" y="-6" as="offset" />
          </mxGeometry>
        </mxCell>
        <mxCell id="Y0ZvNxRReHda0YX5P9mq-16" value="Un navire est là ?" style="rhombus;whiteSpace=wrap;html=1;" vertex="1" parent="1">
          <mxGeometry x="320" y="190" width="140" height="80" as="geometry" />
        </mxCell>
        <mxCell id="Y0ZvNxRReHda0YX5P9mq-18" value="&lt;span data-olk-copy-source=&quot;MessageBody&quot;&gt;le chargement de navires&lt;/span&gt;" style="text;html=1;whiteSpace=wrap;overflow=hidden;rounded=0;" vertex="1" parent="1">
          <mxGeometry x="9" width="771" height="120" as="geometry" />
        </mxCell>
        <mxCell id="Y0ZvNxRReHda0YX5P9mq-26" style="edgeStyle=orthogonalEdgeStyle;rounded=0;orthogonalLoop=1;jettySize=auto;html=1;entryX=0.5;entryY=0;entryDx=0;entryDy=0;" edge="1" parent="1" source="Y0ZvNxRReHda0YX5P9mq-19" target="Y0ZvNxRReHda0YX5P9mq-16">
          <mxGeometry relative="1" as="geometry">
            <Array as="points">
              <mxPoint x="180" y="170" />
              <mxPoint x="390" y="170" />
            </Array>
          </mxGeometry>
        </mxCell>
        <mxCell id="Y0ZvNxRReHda0YX5P9mq-19" value="Les conteneurs restent stockés dans le yard" style="rounded=0;whiteSpace=wrap;html=1;" vertex="1" parent="1">
          <mxGeometry x="120" y="200" width="120" height="60" as="geometry" />
        </mxCell>
        <mxCell id="Y0ZvNxRReHda0YX5P9mq-32" style="edgeStyle=orthogonalEdgeStyle;rounded=0;orthogonalLoop=1;jettySize=auto;html=1;exitX=1;exitY=0.5;exitDx=0;exitDy=0;" edge="1" parent="1" source="Y0ZvNxRReHda0YX5P9mq-21" target="Y0ZvNxRReHda0YX5P9mq-31">
          <mxGeometry relative="1" as="geometry" />
        </mxCell>
        <mxCell id="Y0ZvNxRReHda0YX5P9mq-33" value="No" style="edgeLabel;html=1;align=center;verticalAlign=middle;resizable=0;points=[];" vertex="1" connectable="0" parent="Y0ZvNxRReHda0YX5P9mq-32">
          <mxGeometry x="0.1407" y="2" relative="1" as="geometry">
            <mxPoint x="1" as="offset" />
          </mxGeometry>
        </mxCell>
        <mxCell id="Y0ZvNxRReHda0YX5P9mq-36" style="edgeStyle=orthogonalEdgeStyle;rounded=0;orthogonalLoop=1;jettySize=auto;html=1;entryX=0.5;entryY=0;entryDx=0;entryDy=0;" edge="1" parent="1" source="Y0ZvNxRReHda0YX5P9mq-21" target="Y0ZvNxRReHda0YX5P9mq-35">
          <mxGeometry relative="1" as="geometry" />
        </mxCell>
        <mxCell id="Y0ZvNxRReHda0YX5P9mq-41" value="Yes" style="edgeLabel;html=1;align=center;verticalAlign=middle;resizable=0;points=[];" vertex="1" connectable="0" parent="Y0ZvNxRReHda0YX5P9mq-36">
          <mxGeometry x="0.24" y="2" relative="1" as="geometry">
            <mxPoint x="8" as="offset" />
          </mxGeometry>
        </mxCell>
        <mxCell id="Y0ZvNxRReHda0YX5P9mq-21" value="Le conteneur souhaité est-il accessible ?" style="rhombus;whiteSpace=wrap;html=1;" vertex="1" parent="1">
          <mxGeometry x="317.5" y="310" width="145" height="80" as="geometry" />
        </mxCell>
        <mxCell id="Y0ZvNxRReHda0YX5P9mq-43" style="edgeStyle=orthogonalEdgeStyle;rounded=0;orthogonalLoop=1;jettySize=auto;html=1;exitX=0;exitY=0.5;exitDx=0;exitDy=0;" edge="1" parent="1" source="Y0ZvNxRReHda0YX5P9mq-22">
          <mxGeometry relative="1" as="geometry">
            <mxPoint x="200" y="540" as="targetPoint" />
          </mxGeometry>
        </mxCell>
        <mxCell id="Y0ZvNxRReHda0YX5P9mq-46" value="No" style="edgeLabel;html=1;align=center;verticalAlign=middle;resizable=0;points=[];" vertex="1" connectable="0" parent="Y0ZvNxRReHda0YX5P9mq-43">
          <mxGeometry x="-0.6728" y="1" relative="1" as="geometry">
            <mxPoint x="1" as="offset" />
          </mxGeometry>
        </mxCell>
        <mxCell id="Y0ZvNxRReHda0YX5P9mq-45" style="edgeStyle=orthogonalEdgeStyle;rounded=0;orthogonalLoop=1;jettySize=auto;html=1;exitX=0.5;exitY=1;exitDx=0;exitDy=0;entryX=0.5;entryY=0;entryDx=0;entryDy=0;" edge="1" parent="1" source="Y0ZvNxRReHda0YX5P9mq-22" target="Y0ZvNxRReHda0YX5P9mq-44">
          <mxGeometry relative="1" as="geometry" />
        </mxCell>
        <mxCell id="Y0ZvNxRReHda0YX5P9mq-47" value="No" style="edgeLabel;html=1;align=center;verticalAlign=middle;resizable=0;points=[];" vertex="1" connectable="0" parent="Y0ZvNxRReHda0YX5P9mq-45">
          <mxGeometry x="-0.2" y="1" relative="1" as="geometry">
            <mxPoint x="9" as="offset" />
          </mxGeometry>
        </mxCell>
        <mxCell id="Y0ZvNxRReHda0YX5P9mq-22" value="Le navire est-il chargé complètement ?" style="rhombus;whiteSpace=wrap;html=1;" vertex="1" parent="1">
          <mxGeometry x="317.5" y="600" width="145" height="80" as="geometry" />
        </mxCell>
        <mxCell id="Y0ZvNxRReHda0YX5P9mq-34" style="edgeStyle=orthogonalEdgeStyle;rounded=0;orthogonalLoop=1;jettySize=auto;html=1;entryX=0.5;entryY=0;entryDx=0;entryDy=0;" edge="1" parent="1" source="Y0ZvNxRReHda0YX5P9mq-31" target="Y0ZvNxRReHda0YX5P9mq-21">
          <mxGeometry relative="1" as="geometry">
            <Array as="points">
              <mxPoint x="590" y="290" />
              <mxPoint x="390" y="290" />
            </Array>
          </mxGeometry>
        </mxCell>
        <mxCell id="Y0ZvNxRReHda0YX5P9mq-31" value="La grue déplace les conteneurs bloquants" style="rounded=0;whiteSpace=wrap;html=1;" vertex="1" parent="1">
          <mxGeometry x="530" y="320" width="120" height="60" as="geometry" />
        </mxCell>
        <mxCell id="Y0ZvNxRReHda0YX5P9mq-39" style="edgeStyle=orthogonalEdgeStyle;rounded=0;orthogonalLoop=1;jettySize=auto;html=1;exitX=0.5;exitY=1;exitDx=0;exitDy=0;entryX=0.5;entryY=0;entryDx=0;entryDy=0;" edge="1" parent="1" source="Y0ZvNxRReHda0YX5P9mq-35" target="Y0ZvNxRReHda0YX5P9mq-38">
          <mxGeometry relative="1" as="geometry" />
        </mxCell>
        <mxCell id="Y0ZvNxRReHda0YX5P9mq-35" value="La grue déplace le conteneur jusqu&#39;au quai" style="rounded=0;whiteSpace=wrap;html=1;" vertex="1" parent="1">
          <mxGeometry x="330" y="420" width="120" height="60" as="geometry" />
        </mxCell>
        <mxCell id="Y0ZvNxRReHda0YX5P9mq-40" style="edgeStyle=orthogonalEdgeStyle;rounded=0;orthogonalLoop=1;jettySize=auto;html=1;exitX=1;exitY=0.5;exitDx=0;exitDy=0;" edge="1" parent="1" source="Y0ZvNxRReHda0YX5P9mq-38">
          <mxGeometry relative="1" as="geometry">
            <mxPoint x="390" y="290" as="targetPoint" />
            <Array as="points">
              <mxPoint x="200" y="540" />
              <mxPoint x="200" y="290" />
            </Array>
          </mxGeometry>
        </mxCell>
        <mxCell id="Y0ZvNxRReHda0YX5P9mq-42" style="edgeStyle=orthogonalEdgeStyle;rounded=0;orthogonalLoop=1;jettySize=auto;html=1;exitX=0.5;exitY=1;exitDx=0;exitDy=0;entryX=0.5;entryY=0;entryDx=0;entryDy=0;" edge="1" parent="1" source="Y0ZvNxRReHda0YX5P9mq-38" target="Y0ZvNxRReHda0YX5P9mq-22">
          <mxGeometry relative="1" as="geometry" />
        </mxCell>
        <mxCell id="Y0ZvNxRReHda0YX5P9mq-38" value="La grue de quai charge le navire avec le conteneur" style="rounded=0;whiteSpace=wrap;html=1;" vertex="1" parent="1">
          <mxGeometry x="330" y="510" width="120" height="60" as="geometry" />
        </mxCell>
        <mxCell id="Y0ZvNxRReHda0YX5P9mq-44" value="Fin" style="ellipse;whiteSpace=wrap;html=1;" vertex="1" parent="1">
          <mxGeometry x="330" y="710" width="120" height="80" as="geometry" />
        </mxCell>
      </root>
    </mxGraphModel>
  </diagram>
</mxfile>
